# xmcd
#
# Track frame offsets:
#	150
#	13448
#	27045
#	41449
#	57904
#	69631
#	87047
#	103522
#	114364
#	128780
#	146949
#	158290
#	170905
#	186160
#	201493
#	216600
#	230064
#
# Disc length: 3297 seconds
#
# Revision: 0
# Processed by: cddbd v1.5.2PL0 Copyright (c) Steve Scherf et al.
# Submitted via: audiograbber 1.83.01
#
DISCID=fa0cdf11
DTITLE=Various Artist - ESP476-1
DYEAR=1900
DGENRE=karaoke
TTITLE0=Ralph Stanley - Little Maggie
TTITLE1=Bill Monroe - Kentucky Waltz
TTITLE2=Rhonda Vincent and The Rage - Cry of the Whippoorwill
TTITLE3=Larry Sparks - Smoky Mountain Memories
TTITLE4=Flatt and Scruggs - I'll Go Steppin' Too
TTITLE5=Alison Krauss and Union Station - Teardrops Will Kiss The Morning Dew
TTITLE6=McCoury Brothers - Walk Out In The Rain
TTITLE7=Stanley Brothers - Pig In The Pen
TTITLE8=Valerie Smith - Red Clay Hero
TTITLE9=Del McCoury Band - 1952 Vincent Black Lightning
TTITLE10=Osborne Brothers - The Cuckoo
TTITLE11=Claire Lynch - If Wishes Were Horses
TTITLE12=Seldom Scene - Muddy Water
TTITLE13=Doyle Lawson and Quicksilver - Take Me In Your Lifeboat
TTITLE14=Emmylou Harris and Ricky Skaggs - Darkest Hour Is Just Before Dawn
TTITLE15=Mac Wiseman - Dust on The Bible
TTITLE16=New Grass Revival - Dancin' With The Angels
EXTD=
EXTT0=
EXTT1=
EXTT2=
EXTT3=
EXTT4=
EXTT5=
EXTT6=
EXTT7=
EXTT8=
EXTT9=
EXTT10=
EXTT11=
EXTT12=
EXTT13=
EXTT14=
EXTT15=
EXTT16=
PLAYORDER=
